<?xml version="1.0" encoding="UTF-8"?>
<svg width="24px" height="24px" viewBox="0 0 24 24" version="1.1" xmlns="http://www.w3.org/2000/svg" xmlns:xlink="http://www.w3.org/1999/xlink" style="background: transparent;">
    <!-- Generator: Sketch 56.3 (81716) - https://sketch.com -->
    <title>icon/bitrate</title>
    <desc>Created with Sketch.</desc>
    <g id="icon/bitrate" stroke="none" stroke-width="1" fill="none" fill-rule="evenodd">
        <g id="menu-settings" transform="translate(2.000000, 2.000000)">
            <g id="-g-settings">
                <rect id="box" x="0" y="0" width="20" height="20"></rect>
                <path d="M13.125,10 C13.125,11.72625 11.72625,13.125 10,13.125 C8.27375,13.125 6.875,11.72625 6.875,10 C6.875,8.27375 8.27375,6.875 10,6.875 C11.72625,6.875 13.125,8.27375 13.125,10 M15.01625,10 C15.01625,9.784375 15.0025,9.57125 14.97625,9.363125 L16.595625,7.645 L15.345625,5.48 L13.0475,6.023125 C12.710625,5.76625 12.340625,5.55125 11.944375,5.385 L11.26625,3.125 L8.76625,3.125 L8.088125,5.385 C7.6925,5.55125 7.321875,5.76625 6.985625,6.023125 L4.6875,5.48 L3.4375,7.645 L5.05625,9.363125 C5.03,9.57125 5.01625,9.784375 5.01625,10 C5.01625,10.215625 5.03,10.42875 5.05625,10.636875 L3.4375,12.355 L4.6875,14.52 L6.985625,13.976875 C7.321875,14.23375 7.6925,14.44875 8.088125,14.615 L8.76625,16.875 L11.26625,16.875 L11.944375,14.615 C12.340625,14.44875 12.710625,14.23375 13.0475,13.976875 L15.345625,14.52 L16.595625,12.355 L14.97625,10.636875 C15.0025,10.42875 15.01625,10.215625 15.01625,10" id="Page-1" fill="#FFFFFF"></path>
            </g>
        </g>
    </g>
</svg>